<svg width="229" height="57" viewBox="0 0 229 57" fill="none" xmlns="http://www.w3.org/2000/svg">
<path d="M60.232 46.968C60.0187 45.9867 59.8267 44.8133 59.656 43.448C59.528 42.04 59.336 40.6107 59.08 39.16C58.824 37.6667 58.4827 36.1733 58.056 34.68C57.672 33.1867 57.1387 31.8213 56.456 30.584C55.816 29.304 54.984 28.216 53.96 27.32C52.9787 26.3813 51.784 25.72 50.376 25.336C50.0773 25.2933 49.7147 25.2507 49.288 25.208C48.904 25.1653 48.52 25.144 48.136 25.144C47.752 25.144 47.4107 25.1653 47.112 25.208C46.856 25.2507 46.728 25.2933 46.728 25.336L44.936 41.528C44.8933 41.8267 44.7867 42.1253 44.616 42.424C44.488 42.7227 44.296 43 44.04 43.256C43.8267 43.4693 43.5493 43.5973 43.208 43.64C42.9093 43.7253 42.568 43.6187 42.184 43.32V24.824L37.384 27.32C36.9573 27.5333 35 28.5 32.5 29.944C34.184 29.432 0.670667 46.4693 0.5 46C0.969333 45.36 32.712 27.5973 33.864 26.872C35.016 26.104 36.1893 25.3147 37.384 24.504C38.6213 23.6933 39.7093 22.904 40.648 22.136C41.6293 21.368 42.1413 19.8747 42.184 19.192L44.04 1.07999C44.0827 0.781321 44.2107 0.546655 44.424 0.375988C44.6373 0.205321 44.8933 0.0986544 45.192 0.0559883C45.5333 0.0133197 45.832 0.0133197 46.088 0.0559883C46.3867 0.0559883 46.6 0.0773214 46.728 0.119987V17.272L49.416 15.48L60.232 1.97599H61.96C62.216 2.74399 62.1093 3.66132 61.64 4.72799C61.2133 5.75199 60.6587 6.75466 59.976 7.73599C59.336 8.71732 58.6747 9.59199 57.992 10.36C57.3093 11.128 56.8827 11.6187 56.712 11.832C56.4133 12.088 56.008 12.472 55.496 12.984C54.984 13.4533 54.408 13.9867 53.768 14.584C53.128 15.1813 52.4453 15.8 51.72 16.44C50.9947 17.08 50.312 17.6987 49.672 18.296C49.032 18.8507 48.4347 19.384 47.88 19.896C47.368 20.3653 46.984 20.6853 46.728 20.856C48.3067 21.2827 49.8427 21.7947 51.336 22.392C52.8293 22.9467 54.28 23.608 55.688 24.376C56.584 24.9307 57.3733 25.7627 58.056 26.872C58.7387 27.9813 59.336 29.2613 59.848 30.712C60.36 32.1627 60.7867 33.6987 61.128 35.32C61.4693 36.9413 61.7253 38.52 61.896 40.056C62.1093 41.5493 62.216 42.9147 62.216 44.152C62.2587 45.432 62.216 46.4347 62.088 47.16C61.96 47.8853 61.7253 48.2693 61.384 48.312C61.0427 48.3547 60.6587 47.9067 60.232 46.968Z" fill="#B4B4B4"/>
<path d="M67.2075 47.544C66.5249 46.0933 66.1409 44.6213 66.0555 43.128C66.0129 41.6347 66.0982 40.12 66.3115 38.584C66.3542 38.072 66.4395 37.3467 66.5675 36.408C66.6955 35.4267 66.8449 34.36 67.0155 33.208C67.1862 32.0133 67.3782 30.7547 67.5915 29.432C67.8049 28.1093 67.9969 26.872 68.1675 25.72C68.3382 24.5253 68.4875 23.48 68.6155 22.584C68.7862 21.688 68.9142 21.0053 68.9995 20.536C69.2555 19.0853 69.5542 17.848 69.8955 16.824C70.2369 15.8 70.6849 15.0107 71.2395 14.456C71.8369 13.9013 72.5835 13.6027 73.4795 13.56C74.4182 13.5173 75.6129 13.752 77.0635 14.264C77.2342 14.3067 77.4262 14.456 77.6395 14.712C77.8529 14.9253 77.9595 15.0533 77.9595 15.096C78.0449 15.5653 78.1729 16.2693 78.3435 17.208C78.5569 18.1467 78.7702 19.2133 78.9835 20.408C79.2395 21.6027 79.4955 22.84 79.7515 24.12C80.0502 25.4 80.3062 26.6373 80.5195 27.832C80.7329 29.0267 80.9249 30.0933 81.0955 31.032C81.3089 31.9707 81.4795 32.6747 81.6075 33.144C82.1195 35.576 82.7595 37.2827 83.5275 38.264C84.2955 39.2027 84.6467 40.0773 85.5 40.12C86.204 40.504 87.5613 40.2693 88.5 39.672C89.8525 39.268 95.5482 34.0827 96.4015 33.4C97.2975 32.7173 94.6849 34.6373 95.4955 34.168C96.3062 33.6987 97.8309 30.9893 98.3855 31.288C98.3855 31.928 95.7942 36.216 95.4955 36.856C95.1969 37.4533 94.8129 38.0293 94.3435 38.584C93.9169 39.096 93.4475 39.5867 92.9355 40.056C92.4235 40.5253 91.9542 40.9093 91.5275 41.208C89.5649 42.488 87.9435 43.1707 86.6635 43.256C85.3835 43.2987 84.2742 43 83.3355 42.36C82.4395 41.72 81.7142 40.824 81.1595 39.672C80.6049 38.52 80.1142 37.368 79.6875 36.216C79.3035 35.0213 78.8982 33.976 78.4715 33.08C78.0875 32.1413 77.6182 31.544 77.0635 31.288C76.9355 31.7573 76.7009 32.5467 76.3595 33.656C76.0609 34.7227 75.7195 35.896 75.3355 37.176C74.9515 38.4133 74.5889 39.5867 74.2475 40.696C73.9062 41.8053 73.6502 42.5733 73.4795 43C73.4369 43.1707 73.3089 43.512 73.0955 44.024C72.8822 44.4933 72.5835 45.0053 72.1995 45.56C71.8582 46.1573 71.4742 46.712 71.0475 47.224C70.6209 47.7787 70.1729 48.2053 69.7035 48.504C69.2769 48.8027 68.8289 48.888 68.3595 48.76C67.9329 48.6747 67.5489 48.2693 67.2075 47.544ZM69.8955 32.248C69.8529 32.6747 69.8102 33.4427 69.7675 34.552C69.7675 35.6613 69.7675 36.8347 69.7675 38.072C69.7675 39.2667 69.7675 40.44 69.7675 41.592C69.8102 42.7013 69.8529 43.4693 69.8955 43.896C71.0902 42.0613 72.1569 39.928 73.0955 37.496C74.0769 35.064 74.8235 32.5467 75.3355 29.944C75.8475 27.2987 76.0395 24.696 75.9115 22.136C75.8262 19.576 75.3355 17.2293 74.4395 15.096C73.7995 16.2053 73.2235 17.5707 72.7115 19.192C72.1995 20.8133 71.7515 22.456 71.3675 24.12C71.0262 25.784 70.7062 27.3627 70.4075 28.856C70.1515 30.3493 69.9809 31.48 69.8955 32.248Z" fill="#B4B4B4"/>
<path d="M99.7295 23.8V46.264C99.2175 47.416 98.7695 47.992 98.3855 47.992C98.0015 48.0347 97.6602 47.6507 97.3615 46.84C97.1055 46.072 96.8922 44.9627 96.7215 43.512C96.5935 42.104 96.5082 40.5467 96.4655 38.84C96.4229 37.0907 96.4015 35.2773 96.4015 33.4C96.4442 31.48 96.5082 29.6453 96.5935 27.896C96.6789 26.1467 96.7855 24.5467 96.9135 23.096C97.0842 21.6027 97.2335 20.4293 97.3615 19.576C97.5322 18.7227 97.7029 18.2533 97.8735 18.168C98.0442 18.0827 98.2149 18.5733 98.3855 19.64C99.4949 18.7867 100.69 17.9973 101.97 17.272C103.25 16.504 104.572 15.864 105.938 15.352C107.303 14.84 108.69 14.52 110.098 14.392C111.506 14.264 112.85 14.392 114.13 14.776C114.3 15.2453 114.322 15.7787 114.194 16.376C114.066 16.9307 113.746 17.2933 113.234 17.464C112.679 17.3787 111.954 17.336 111.058 17.336C110.162 17.336 109.202 17.4 108.178 17.528C107.196 17.656 106.194 17.8693 105.17 18.168C104.146 18.4667 103.228 18.872 102.418 19.384C101.65 19.896 101.01 20.5147 100.498 21.24C99.9855 21.9227 99.7295 22.776 99.7295 23.8Z" fill="#B4B4B4"/>
<path d="M121.669 45.944C120.218 44.792 119.066 43.448 118.213 41.912C117.402 40.376 116.783 38.7333 116.357 36.984C116.101 37.1547 115.759 37.3467 115.333 37.56C114.949 37.7307 114.543 37.9013 114.117 38.072C113.69 38.2 113.263 38.2853 112.837 38.328C112.41 38.3707 112.111 38.328 111.941 38.2C111.77 38.072 111.706 37.8587 111.749 37.56C111.834 37.2187 112.154 36.7067 112.709 36.024C112.794 35.9387 113.007 35.7253 113.349 35.384C113.733 35 114.138 34.616 114.565 34.232C114.991 33.8053 115.375 33.4213 115.717 33.08C116.058 32.7387 116.271 32.5253 116.357 32.44C116.698 31.544 116.911 30.584 116.997 29.56C117.082 28.4933 117.125 27.4053 117.125 26.296C117.167 25.1867 117.231 24.0773 117.317 22.968C117.445 21.8587 117.722 20.8133 118.149 19.832C118.362 19.32 118.789 18.6587 119.429 17.848C120.111 16.9947 120.879 16.2053 121.733 15.48C122.629 14.712 123.503 14.0293 124.357 13.432C125.21 12.792 125.957 12.408 126.597 12.28C127.279 12.152 127.77 12.3227 128.069 12.792C128.367 13.2187 128.346 14.072 128.005 15.352C127.621 16.8453 127.045 18.3173 126.277 19.768C125.509 21.2187 124.698 22.648 123.845 24.056C123.034 25.4213 122.266 26.808 121.541 28.216C120.815 29.5813 120.282 30.9893 119.941 32.44C119.77 33.208 119.685 34.1253 119.685 35.192C119.685 36.2587 119.813 37.3253 120.069 38.392C120.325 39.4587 120.709 40.44 121.221 41.336C121.775 42.232 122.543 42.8507 123.525 43.192C124.591 43.6187 125.679 43.7253 126.789 43.512C127.941 43.2987 129.029 42.8933 130.053 42.296C131.119 41.6987 132.122 40.9733 133.061 40.12C134.042 39.224 134.959 38.3067 135.813 37.368C136.666 36.4293 137.413 35.5333 138.053 34.68C138.693 33.784 142.157 29.0053 142.584 28.408L140.613 33.336C140.826 33.5067 140.655 34.0827 140.101 35.064C139.589 36.0453 138.821 37.1547 137.797 38.392C136.773 39.6293 135.557 40.888 134.149 42.168C132.783 43.4053 131.375 44.4507 129.925 45.304C128.474 46.2 127.023 46.7547 125.573 46.968C124.122 47.1813 122.821 46.84 121.669 45.944ZM119.941 23.352C119.898 23.5653 119.877 23.8853 119.877 24.312C119.877 24.7387 119.877 25.1867 119.877 25.656C119.877 26.1253 119.877 26.5733 119.877 27C119.877 27.4267 119.898 27.7253 119.941 27.896C121.05 25.976 122.074 23.9493 123.013 21.816C123.994 19.6827 124.762 17.528 125.317 15.352C124.506 15.608 123.781 16.0347 123.141 16.632C122.501 17.1867 121.967 17.848 121.541 18.616C121.114 19.3413 120.751 20.1307 120.453 20.984C120.197 21.7947 120.026 22.584 119.941 23.352Z" fill="#B4B4B4"/>
<path d="M141.752 45.944C141.795 45.4747 141.816 44.6853 141.816 43.576V36.536C141.816 35.4267 141.795 34.6373 141.752 34.168C141.709 33.9973 141.645 33.5707 141.56 32.888C141.475 32.2053 141.368 31.3947 141.24 30.456C141.112 29.4747 140.984 28.472 140.856 27.448C140.728 26.424 140.579 25.464 140.408 24.568C140.28 23.6293 140.173 22.8187 140.088 22.136C140.003 21.4107 139.939 20.92 139.896 20.664C139.853 20.1947 139.832 19.704 139.832 19.192C139.875 18.68 139.981 18.232 140.152 17.848C140.323 17.464 140.579 17.208 140.92 17.08C141.304 16.9093 141.859 16.9307 142.584 17.144C142.627 17.8693 142.691 18.7227 142.776 19.704C142.904 20.6853 143.032 21.7093 143.16 22.776C143.288 23.8427 143.459 24.9093 143.672 25.976C143.885 27 144.141 27.96 144.44 28.856C144.867 27.5333 145.293 26.3813 145.72 25.4C146.189 24.4187 146.701 23.5227 147.256 22.712C147.811 21.9013 148.429 21.112 149.112 20.344C149.795 19.576 150.627 18.808 151.608 18.04C152.803 17.016 153.805 16.6107 154.616 16.824C155.427 16.9947 156.088 17.592 156.6 18.616C157.155 19.5973 157.603 20.8773 157.944 22.456C158.328 23.992 158.648 25.6347 158.904 27.384C159.16 29.1333 159.437 30.84 159.736 32.504C160.035 34.168 160.397 35.6187 160.824 36.856C161.293 38.0933 161.869 38.9893 162.552 39.544C163 41 184.45 24.568 185.474 24.056C185.773 24.9947 165.453 41.2293 165.24 41.656C165.027 42.0827 164.643 42.3173 164.088 42.36C163.533 42.4027 162.893 42.2747 162.168 41.976C161.485 41.6347 160.781 41.1867 160.056 40.632C159.373 40.0773 158.755 39.3947 158.2 38.584C157.645 37.7733 157.24 36.92 156.984 36.024C156.899 35.4267 156.792 34.424 156.664 33.016C156.536 31.5653 156.365 30.0293 156.152 28.408C155.981 26.7867 155.661 25.1867 155.192 23.608C154.765 22.0293 154.168 20.7707 153.4 19.832L149.752 23.352C149.667 23.5227 149.411 24.1627 148.984 25.272C148.6 26.3387 148.173 27.5973 147.704 29.048C147.235 30.4987 146.765 31.9707 146.296 33.464C145.827 34.9147 145.507 36.088 145.336 36.984C145.251 37.2827 145.144 37.8587 145.016 38.712C144.931 39.5227 144.824 40.4187 144.696 41.4C144.611 42.3813 144.547 43.2987 144.504 44.152C144.461 45.0053 144.44 45.6027 144.44 45.944C144.141 46.584 143.693 46.904 143.096 46.904C142.499 46.904 142.051 46.584 141.752 45.944Z" fill="#B4B4B4"/>
<path d="M173.762 55.264C172.482 54.4533 171.778 53.1947 171.65 51.488C171.522 49.824 171.735 47.9467 172.29 45.856C172.887 43.7653 173.698 41.5893 174.722 39.328C175.789 37.0667 176.898 34.9547 178.05 32.992C179.202 30.9867 180.29 29.2373 181.314 27.744C182.381 26.2507 183.191 25.248 183.746 24.736C183.746 24.5653 183.746 24.2453 183.746 23.776C183.746 23.3067 183.746 23.008 183.746 22.88C183.661 22.4533 183.533 21.728 183.362 20.704C183.234 19.68 183.063 18.592 182.85 17.44C182.679 16.288 182.487 15.2213 182.274 14.24C182.103 13.216 181.975 12.4907 181.89 12.064C181.719 11.7227 181.463 11.4667 181.122 11.296C180.823 11.0827 180.482 11.0613 180.098 11.232L165.698 16.544C165.314 16.7147 164.951 16.6933 164.61 16.48C164.311 16.2667 164.077 15.9893 163.906 15.648C163.778 15.3067 163.778 14.9653 163.906 14.624C164.034 14.2827 164.311 14.0267 164.738 13.856L194.498 4.00001H197.186C197.442 4.68267 197.506 5.19467 197.378 5.53601C197.293 5.87734 197.101 6.11201 196.802 6.24001C196.503 6.36801 196.141 6.45334 195.714 6.49601C195.33 6.53867 194.925 6.60268 194.498 6.68801C194.157 6.81601 193.559 7.00801 192.706 7.26401C191.853 7.47734 190.935 7.73334 189.954 8.03201C188.973 8.33067 188.055 8.60801 187.202 8.86401C186.391 9.12001 185.815 9.29067 185.474 9.37601C185.303 11.3387 185.367 13.3227 185.666 15.328C185.965 17.3333 186.519 19.2533 187.33 21.088L196.29 16.544C196.759 16.288 197.229 16.2667 197.698 16.48C198.167 16.6507 198.509 16.9067 198.722 17.248C198.978 17.5893 228.585 1.07333 228.5 1.5C228.415 1.884 197.159 18.7872 196.647 18.9578C195.836 19.2565 198.051 18.0998 196.999 18.8231C195.946 19.5464 193.069 20.9387 192.002 21.408C190.935 21.8347 189.954 22.3893 189.058 23.072C188.205 23.712 187.629 24.544 187.33 25.568C187.202 25.9093 187.074 26.72 186.946 28C186.861 29.28 186.733 30.816 186.562 32.608C186.434 34.3573 186.221 36.2987 185.922 38.432C185.666 40.5227 185.325 42.5707 184.898 44.576C184.514 46.624 184.002 48.5227 183.362 50.272C182.765 52.064 181.997 53.4933 181.058 54.56C180.162 55.6693 179.117 56.3093 177.922 56.48C176.727 56.6933 175.341 56.288 173.762 55.264ZM174.32 52.924C174.087 53.836 176.429 54.8587 177.026 54.56C177.623 54.2613 179.501 52.512 180.098 51.488C180.695 50.5067 181.591 47.48 182.146 45.944C182.701 44.4507 183.165 39.4587 183.592 38.008C184.654 34.3971 182.675 41.848 183.295 39.456C183.594 38.304 183.703 37.5573 183.746 37.216C183.746 38.0267 183.746 36.9173 183.746 37.216L184.333 29.048C184.333 28.2373 183.746 28.64 183.746 28.256C182.274 27.616 180.098 31.4773 178.946 33.44C177.837 35.36 177.046 37.3227 176.32 39.456C175.638 41.5893 175.021 43.6373 174.722 45.856C174.423 48.0747 174.022 50.876 174.32 52.924Z" fill="#B4B4B4"/>
<path d="M201.903 45.048C201.007 43.8107 200.473 42.4027 200.303 40.824C200.132 39.2453 200.132 37.6027 200.303 35.896C200.473 34.1467 200.751 32.3973 201.135 30.648C201.519 28.856 201.86 27.1493 202.159 25.528C202.457 23.864 202.607 22.328 202.607 20.92C202.649 19.4693 202.415 18.232 201.903 17.208C201.647 16.6533 201.263 16.3973 200.751 16.44C200.281 16.44 197.202 18.8298 196.647 18.9578C195.891 19.3536 198.191 16.76 197.679 16.76C196.29 18.04 195.629 18.2718 195.202 17.6318C195.245 17.5038 196.884 16.2693 197.098 16.056C197.311 15.8427 228 1.5 228 1.5C231.115 1.03067 202.82 14.6907 204.911 15.8C207.001 16.8667 208.665 18.4027 209.903 20.408C211.183 22.3707 212.036 24.632 212.463 27.192C212.932 29.752 213.103 32.2907 212.975 34.808C212.847 37.3253 212.441 39.672 211.759 41.848C211.119 43.9813 210.287 45.624 209.263 46.776C208.281 47.9707 207.151 48.504 205.871 48.376C204.591 48.248 203.268 47.1387 201.903 45.048ZM204.591 43.256C204.633 43.3413 204.74 43.4693 204.911 43.64C205.081 43.8107 205.252 44.0027 205.423 44.216C205.593 44.4293 205.764 44.6 205.935 44.728C206.105 44.8987 206.233 45.0053 206.319 45.048C207.279 45.528 208.409 45.3893 209.007 44.152C209.647 42.9147 210.915 38.8613 211 37.368C211.128 35.832 211.256 33.664 211 32C211 29.816 211 29.704 211 28C210.4 25.568 209.903 22.456 208.5 21.408C205.231 17.888 206.041 21.6453 205.487 20.792C205.444 21.2613 205.359 21.9653 205.231 22.904C205.145 23.8 205.039 24.8453 204.911 26.04C204.825 27.2347 204.719 28.4933 204.591 29.816C204.463 31.096 204.335 32.3333 204.207 33.528C204.079 34.7227 203.951 35.7893 203.823 36.728C203.737 37.6667 203.673 38.3493 203.631 38.776C203.631 39.1173 203.652 39.5227 203.695 39.992C203.737 40.4187 203.801 40.8453 203.887 41.272C204.015 41.656 204.143 42.04 204.271 42.424C204.399 42.7653 204.505 43.0427 204.591 43.256Z" fill="#B4B4B4"/>
</svg>
