<svg width="248" height="87" viewBox="0 0 248 87" fill="none" xmlns="http://www.w3.org/2000/svg">
<path d="M60.232 76.968C60.0187 75.9867 59.8267 74.8133 59.656 73.448C59.528 72.04 59.336 70.6107 59.08 69.16C58.824 67.6667 58.4827 66.1733 58.056 64.68C57.672 63.1867 57.1387 61.8213 56.456 60.584C55.816 59.304 54.984 58.216 53.96 57.32C52.9787 56.3813 51.784 55.72 50.376 55.336C50.0773 55.2933 49.7147 55.2507 49.288 55.208C48.904 55.1653 48.52 55.144 48.136 55.144C47.752 55.144 47.4107 55.1653 47.112 55.208C46.856 55.2507 46.728 55.2933 46.728 55.336L44.936 71.528C44.8933 71.8267 44.7867 72.1253 44.616 72.424C44.488 72.7227 44.296 73 44.04 73.256C43.8267 73.4693 43.5493 73.5973 43.208 73.64C42.9093 73.7253 42.568 73.6187 42.184 73.32V54.824L37.384 57.32C36.9573 57.5333 35 58.5 32.5 59.944C34.184 59.432 0.670667 76.4693 0.5 76C0.969333 75.36 32.712 57.5973 33.864 56.872C35.016 56.104 36.1893 55.3147 37.384 54.504C38.6213 53.6933 39.7093 52.904 40.648 52.136C41.6293 51.368 42.1413 49.8747 42.184 49.192L44.04 31.08C44.0827 30.7813 44.2107 30.5467 44.424 30.376C44.6373 30.2053 44.8933 30.0987 45.192 30.056C45.5333 30.0133 45.832 30.0133 46.088 30.056C46.3867 30.056 46.6 30.0773 46.728 30.12V47.272L49.416 45.48L60.232 31.976H61.96C62.216 32.744 62.1093 33.6613 61.64 34.728C61.2133 35.752 60.6587 36.7547 59.976 37.736C59.336 38.7173 58.6747 39.592 57.992 40.36C57.3093 41.128 56.8827 41.6187 56.712 41.832C56.4133 42.088 56.008 42.472 55.496 42.984C54.984 43.4533 54.408 43.9867 53.768 44.584C53.128 45.1813 52.4453 45.8 51.72 46.44C50.9947 47.08 50.312 47.6987 49.672 48.296C49.032 48.8507 48.4347 49.384 47.88 49.896C47.368 50.3653 46.984 50.6853 46.728 50.856C48.3067 51.2827 49.8427 51.7947 51.336 52.392C52.8293 52.9467 54.28 53.608 55.688 54.376C56.584 54.9307 57.3733 55.7627 58.056 56.872C58.7387 57.9813 59.336 59.2613 59.848 60.712C60.36 62.1627 60.7867 63.6987 61.128 65.32C61.4693 66.9413 61.7253 68.52 61.896 70.056C62.1093 71.5493 62.216 72.9147 62.216 74.152C62.2587 75.432 62.216 76.4347 62.088 77.16C61.96 77.8853 61.7253 78.2693 61.384 78.312C61.0427 78.3547 60.6587 77.9067 60.232 76.968Z" fill="#B4B4B4"/>
<path d="M67.2075 77.544C66.5249 76.0933 66.1409 74.6213 66.0555 73.128C66.0129 71.6347 66.0982 70.12 66.3115 68.584C66.3542 68.072 66.4395 67.3467 66.5675 66.408C66.6955 65.4267 66.8449 64.36 67.0155 63.208C67.1862 62.0133 67.3782 60.7547 67.5915 59.432C67.8049 58.1093 67.9969 56.872 68.1675 55.72C68.3382 54.5253 68.4875 53.48 68.6155 52.584C68.7862 51.688 68.9142 51.0053 68.9995 50.536C69.2555 49.0853 69.5542 47.848 69.8955 46.824C70.2369 45.8 70.6849 45.0107 71.2395 44.456C71.8369 43.9013 72.5835 43.6027 73.4795 43.56C74.4182 43.5173 75.6129 43.752 77.0635 44.264C77.2342 44.3067 77.4262 44.456 77.6395 44.712C77.8529 44.9253 77.9595 45.0533 77.9595 45.096C78.0449 45.5653 78.1729 46.2693 78.3435 47.208C78.5569 48.1467 78.7702 49.2133 78.9835 50.408C79.2395 51.6027 79.4955 52.84 79.7515 54.12C80.0502 55.4 80.3062 56.6373 80.5195 57.832C80.7329 59.0267 80.9249 60.0933 81.0955 61.032C81.3089 61.9707 81.4795 62.6747 81.6075 63.144C82.1195 65.576 82.7595 67.2827 83.5275 68.264C84.2955 69.2027 84.6467 70.0773 85.5 70.12C86.204 70.504 87.5613 70.2693 88.5 69.672C89.8525 69.268 95.5482 64.0827 96.4015 63.4C97.2975 62.7173 94.6849 64.6373 95.4955 64.168C96.3062 63.6987 97.8309 60.9893 98.3855 61.288C98.3855 61.928 95.7942 66.216 95.4955 66.856C95.1969 67.4533 94.8129 68.0293 94.3435 68.584C93.9169 69.096 93.4475 69.5867 92.9355 70.056C92.4235 70.5253 91.9542 70.9093 91.5275 71.208C89.5649 72.488 87.9435 73.1707 86.6635 73.256C85.3835 73.2987 84.2742 73 83.3355 72.36C82.4395 71.72 81.7142 70.824 81.1595 69.672C80.6049 68.52 80.1142 67.368 79.6875 66.216C79.3035 65.0213 78.8982 63.976 78.4715 63.08C78.0875 62.1413 77.6182 61.544 77.0635 61.288C76.9355 61.7573 76.7009 62.5467 76.3595 63.656C76.0609 64.7227 75.7195 65.896 75.3355 67.176C74.9515 68.4133 74.5889 69.5867 74.2475 70.696C73.9062 71.8053 73.6502 72.5733 73.4795 73C73.4369 73.1707 73.3089 73.512 73.0955 74.024C72.8822 74.4933 72.5835 75.0053 72.1995 75.56C71.8582 76.1573 71.4742 76.712 71.0475 77.224C70.6209 77.7787 70.1729 78.2053 69.7035 78.504C69.2769 78.8027 68.8289 78.888 68.3595 78.76C67.9329 78.6747 67.5489 78.2693 67.2075 77.544ZM69.8955 62.248C69.8529 62.6747 69.8102 63.4427 69.7675 64.552C69.7675 65.6613 69.7675 66.8347 69.7675 68.072C69.7675 69.2667 69.7675 70.44 69.7675 71.592C69.8102 72.7013 69.8529 73.4693 69.8955 73.896C71.0902 72.0613 72.1569 69.928 73.0955 67.496C74.0769 65.064 74.8235 62.5467 75.3355 59.944C75.8475 57.2987 76.0395 54.696 75.9115 52.136C75.8262 49.576 75.3355 47.2293 74.4395 45.096C73.7995 46.2053 73.2235 47.5707 72.7115 49.192C72.1995 50.8133 71.7515 52.456 71.3675 54.12C71.0262 55.784 70.7062 57.3627 70.4075 58.856C70.1515 60.3493 69.9809 61.48 69.8955 62.248Z" fill="#B4B4B4"/>
<path d="M99.7295 53.8V76.264C99.2175 77.416 98.7695 77.992 98.3855 77.992C98.0015 78.0347 97.6602 77.6507 97.3615 76.84C97.1055 76.072 96.8922 74.9627 96.7215 73.512C96.5935 72.104 96.5082 70.5467 96.4655 68.84C96.4229 67.0907 96.4015 65.2773 96.4015 63.4C96.4442 61.48 96.5082 59.6453 96.5935 57.896C96.6789 56.1467 96.7855 54.5467 96.9135 53.096C97.0842 51.6027 97.2335 50.4293 97.3615 49.576C97.5322 48.7227 97.7029 48.2533 97.8735 48.168C98.0442 48.0827 98.2149 48.5733 98.3855 49.64C99.4949 48.7867 100.69 47.9973 101.97 47.272C103.25 46.504 104.572 45.864 105.938 45.352C107.303 44.84 108.69 44.52 110.098 44.392C111.506 44.264 112.85 44.392 114.13 44.776C114.3 45.2453 114.322 45.7787 114.194 46.376C114.066 46.9307 113.746 47.2933 113.234 47.464C112.679 47.3787 111.954 47.336 111.058 47.336C110.162 47.336 109.202 47.4 108.178 47.528C107.196 47.656 106.194 47.8693 105.17 48.168C104.146 48.4667 103.228 48.872 102.418 49.384C101.65 49.896 101.01 50.5147 100.498 51.24C99.9855 51.9227 99.7295 52.776 99.7295 53.8Z" fill="#B4B4B4"/>
<path d="M121.669 75.944C120.218 74.792 119.066 73.448 118.213 71.912C117.402 70.376 116.783 68.7333 116.357 66.984C116.101 67.1547 115.759 67.3467 115.333 67.56C114.949 67.7307 114.543 67.9013 114.117 68.072C113.69 68.2 113.263 68.2853 112.837 68.328C112.41 68.3707 112.111 68.328 111.941 68.2C111.77 68.072 111.706 67.8587 111.749 67.56C111.834 67.2187 112.154 66.7067 112.709 66.024C112.794 65.9387 113.007 65.7253 113.349 65.384C113.733 65 114.138 64.616 114.565 64.232C114.991 63.8053 115.375 63.4213 115.717 63.08C116.058 62.7387 116.271 62.5253 116.357 62.44C116.698 61.544 116.911 60.584 116.997 59.56C117.082 58.4933 117.125 57.4053 117.125 56.296C117.167 55.1867 117.231 54.0773 117.317 52.968C117.445 51.8587 117.722 50.8133 118.149 49.832C118.362 49.32 118.789 48.6587 119.429 47.848C120.111 46.9947 120.879 46.2053 121.733 45.48C122.629 44.712 123.503 44.0293 124.357 43.432C125.21 42.792 125.957 42.408 126.597 42.28C127.279 42.152 127.77 42.3227 128.069 42.792C128.367 43.2187 128.346 44.072 128.005 45.352C127.621 46.8453 127.045 48.3173 126.277 49.768C125.509 51.2187 124.698 52.648 123.845 54.056C123.034 55.4213 122.266 56.808 121.541 58.216C120.815 59.5813 120.282 60.9893 119.941 62.44C119.77 63.208 119.685 64.1253 119.685 65.192C119.685 66.2587 119.813 67.3253 120.069 68.392C120.325 69.4587 120.709 70.44 121.221 71.336C121.775 72.232 122.543 72.8507 123.525 73.192C124.591 73.6187 125.679 73.7253 126.789 73.512C127.941 73.2987 129.029 72.8933 130.053 72.296C131.119 71.6987 132.122 70.9733 133.061 70.12C134.042 69.224 134.959 68.3067 135.813 67.368C136.666 66.4293 137.413 65.5333 138.053 64.68C138.693 63.784 142.157 59.0053 142.584 58.408L140.613 63.336C140.101 65.064 140.055 65.0187 139.5 66C138.988 66.9813 138.821 67.1547 137.797 68.392C136.773 69.6293 135.557 70.888 134.149 72.168C132.783 73.4053 131.375 74.4507 129.925 75.304C128.474 76.2 127.023 76.7547 125.573 76.968C124.122 77.1813 122.821 76.84 121.669 75.944ZM119.941 53.352C119.898 53.5653 119.877 53.8853 119.877 54.312C119.877 54.7387 119.877 55.1867 119.877 55.656C119.877 56.1253 119.877 56.5733 119.877 57C119.877 57.4267 119.898 57.7253 119.941 57.896C121.05 55.976 122.074 53.9493 123.013 51.816C123.994 49.6827 124.762 47.528 125.317 45.352C124.506 45.608 123.781 46.0347 123.141 46.632C122.501 47.1867 121.967 47.848 121.541 48.616C121.114 49.3413 120.751 50.1307 120.453 50.984C120.197 51.7947 120.026 52.584 119.941 53.352Z" fill="#B4B4B4"/>
<path d="M141.752 75.944C141.795 75.4747 141.816 74.6853 141.816 73.576V66.536C141.816 65.4267 141.795 64.6373 141.752 64.168C141.709 63.9973 141.645 63.5707 141.56 62.888C141.475 62.2053 141.368 61.3947 141.24 60.456C141.112 59.4747 140.984 58.472 140.856 57.448C140.728 56.424 140.579 55.464 140.408 54.568C140.28 53.6293 140.173 52.8187 140.088 52.136C140.003 51.4107 139.939 50.92 139.896 50.664C139.853 50.1947 139.832 49.704 139.832 49.192C139.875 48.68 139.981 48.232 140.152 47.848C140.323 47.464 140.579 47.208 140.92 47.08C141.304 46.9093 141.859 46.9307 142.584 47.144C142.627 47.8693 142.691 48.7227 142.776 49.704C142.904 50.6853 143.032 51.7093 143.16 52.776C143.288 53.8427 143.459 54.9093 143.672 55.976C143.885 57 144.141 57.96 144.44 58.856C144.867 57.5333 145.293 56.3813 145.72 55.4C146.189 54.4187 146.701 53.5227 147.256 52.712C147.811 51.9013 148.429 51.112 149.112 50.344C149.795 49.576 150.627 48.808 151.608 48.04C152.803 47.016 153.805 46.6107 154.616 46.824C155.427 46.9947 156.088 47.592 156.6 48.616C157.155 49.5973 157.603 50.8773 157.944 52.456C158.328 53.992 158.648 55.6347 158.904 57.384C159.16 59.1333 159.437 60.84 159.736 62.504C160.035 64.168 160.397 65.6187 160.824 66.856C161.293 68.0933 161.869 68.9893 162.552 69.544C163 71 184.45 54.568 185.474 54.056C185.773 54.9947 165.453 71.2293 165.24 71.656C165.027 72.0827 164.643 72.3173 164.088 72.36C163.533 72.4027 162.893 72.2747 162.168 71.976C161.485 71.6347 160.781 71.1867 160.056 70.632C159.373 70.0773 158.755 69.3947 158.2 68.584C157.645 67.7733 157.24 66.92 156.984 66.024C156.899 65.4267 156.792 64.424 156.664 63.016C156.536 61.5653 156.365 60.0293 156.152 58.408C155.981 56.7867 155.661 55.1867 155.192 53.608C154.765 52.0293 154.168 50.7707 153.4 49.832L149.752 53.352C149.667 53.5227 149.411 54.1627 148.984 55.272C148.6 56.3387 148.173 57.5973 147.704 59.048C147.235 60.4987 146.765 61.9707 146.296 63.464C145.827 64.9147 145.507 66.088 145.336 66.984C145.251 67.2827 145.144 67.8587 145.016 68.712C144.931 69.5227 144.824 70.4187 144.696 71.4C144.611 72.3813 144.547 73.2987 144.504 74.152C144.461 75.0053 144.44 75.6027 144.44 75.944C144.141 76.584 143.693 76.904 143.096 76.904C142.499 76.904 142.051 76.584 141.752 75.944Z" fill="#B4B4B4"/>
<path d="M173.762 85.264C172.482 84.4533 171.778 83.1947 171.65 81.488C171.522 79.824 171.735 77.9467 172.29 75.856C172.887 73.7653 173.698 71.5893 174.722 69.328C175.789 67.0667 176.898 64.9547 178.05 62.992C179.202 60.9867 180.29 59.2373 181.314 57.744C182.381 56.2507 183.191 55.248 183.746 54.736C183.746 54.5653 183.746 54.2453 183.746 53.776C183.746 53.3067 183.746 53.008 183.746 52.88C183.661 52.4533 183.533 51.728 183.362 50.704C183.234 49.68 183.063 48.592 182.85 47.44C182.679 46.288 182.487 45.2213 182.274 44.24C182.103 43.216 181.975 42.4907 181.89 42.064C181.719 41.7227 181.463 41.4667 181.122 41.296C180.823 41.0827 180.482 41.0613 180.098 41.232L165.698 46.544C165.314 46.7147 164.951 46.6933 164.61 46.48C164.311 46.2667 164.077 45.9893 163.906 45.648C163.778 45.3067 163.778 44.9653 163.906 44.624C164.034 44.2827 164.311 44.0267 164.738 43.856L194.498 34H197.186C197.442 34.6827 197.506 35.1947 197.378 35.536C197.293 35.8773 197.101 36.112 196.802 36.24C196.503 36.368 196.141 36.4533 195.714 36.496C195.33 36.5387 194.925 36.6027 194.498 36.688C194.157 36.816 193.559 37.008 192.706 37.264C191.853 37.4773 190.935 37.7333 189.954 38.032C188.973 38.3307 188.055 38.608 187.202 38.864C186.391 39.12 185.815 39.2907 185.474 39.376C185.303 41.3387 185.367 43.3227 185.666 45.328C185.965 47.3333 186.519 49.2533 187.33 51.088L196.29 46.544C196.759 46.288 197.229 46.2667 197.698 46.48C198.167 46.6507 198.509 46.9067 198.722 47.248C198.978 47.5893 228.585 31.0733 228.5 31.5C228.415 31.884 197.159 48.7872 196.647 48.9578C195.836 49.2565 198.051 48.0998 196.999 48.8231C195.946 49.5464 193.069 50.9387 192.002 51.408C190.935 51.8347 189.954 52.3893 189.058 53.072C188.205 53.712 187.629 54.544 187.33 55.568C187.202 55.9093 187.074 56.72 186.946 58C186.861 59.28 186.733 60.816 186.562 62.608C186.434 64.3573 186.221 66.2987 185.922 68.432C185.666 70.5227 185.325 72.5707 184.898 74.576C184.514 76.624 184.002 78.5227 183.362 80.272C182.765 82.064 181.997 83.4933 181.058 84.56C180.162 85.6693 179.117 86.3093 177.922 86.48C176.727 86.6933 175.341 86.288 173.762 85.264ZM174.32 82.924C174.087 83.836 176.429 84.8587 177.026 84.56C177.623 84.2613 179.501 82.512 180.098 81.488C180.695 80.5067 181.591 77.48 182.146 75.944C182.701 74.4507 183.165 69.4587 183.592 68.008C184.654 64.3971 182.675 71.848 183.295 69.456C183.594 68.304 183.703 67.5573 183.746 67.216C183.746 68.0267 183.746 66.9173 183.746 67.216L184.333 59.048C184.333 58.2373 183.746 58.64 183.746 58.256C182.274 57.616 180.098 61.4773 178.946 63.44C177.837 65.36 177.046 67.3227 176.32 69.456C175.638 71.5893 175.021 73.6373 174.722 75.856C174.423 78.0747 174.022 80.876 174.32 82.924Z" fill="#B4B4B4"/>
<path d="M201.903 75.048C201.007 73.8107 200.473 72.4027 200.303 70.824C200.132 69.2453 200.132 67.6027 200.303 65.896C200.473 64.1467 200.751 62.3973 201.135 60.648C201.519 58.856 201.86 57.1493 202.159 55.528C202.457 53.864 202.607 52.328 202.607 50.92C202.649 49.4693 202.415 48.232 201.903 47.208C201.647 46.6533 201.263 46.3973 200.751 46.44C200.281 46.44 197.202 48.8298 196.647 48.9578C195.891 49.3536 198.191 46.76 197.679 46.76C196.29 48.04 195.629 48.2718 195.202 47.6318C195.245 47.5038 196.884 46.2693 197.098 46.056C197.311 45.8427 228 31.5 228 31.5C231.115 31.0307 202.82 44.6907 204.911 45.8C207.001 46.8667 208.665 48.4027 209.903 50.408C211.183 52.3707 212.036 54.632 212.463 57.192C212.932 59.752 213.103 62.2907 212.975 64.808C212.847 67.3253 212.441 69.672 211.759 71.848C211.119 73.9813 210.287 75.624 209.263 76.776C208.281 77.9707 207.151 78.504 205.871 78.376C204.591 78.248 203.268 77.1387 201.903 75.048ZM204.591 73.256C204.633 73.3413 204.74 73.4693 204.911 73.64C205.081 73.8107 205.252 74.0027 205.423 74.216C205.593 74.4293 205.764 74.6 205.935 74.728C206.105 74.8987 206.233 75.0053 206.319 75.048C207.279 75.528 208.409 75.3893 209.007 74.152C209.647 72.9147 210.915 68.8613 211 67.368C211.128 65.832 211.256 63.664 211 62C211 59.816 211 59.704 211 58C210.4 55.568 209.903 52.456 208.5 51.408C205.231 47.888 206.041 51.6453 205.487 50.792C205.444 51.2613 205.359 51.9653 205.231 52.904C205.145 53.8 205.039 54.8453 204.911 56.04C204.825 57.2347 204.719 58.4933 204.591 59.816C204.463 61.096 204.335 62.3333 204.207 63.528C204.079 64.7227 203.951 65.7893 203.823 66.728C203.737 67.6667 203.673 68.3493 203.631 68.776C203.631 69.1173 203.652 69.5227 203.695 69.992C203.737 70.4187 203.801 70.8453 203.887 71.272C204.015 71.656 204.143 72.04 204.271 72.424C204.399 72.7653 204.505 73.0427 204.591 73.256Z" fill="#B4B4B4"/>
<path d="M131.212 77.5835C128.404 78.5791 126.16 80.2537 126.045 81.4972C125.95 82.5334 128.494 82.1405 131.586 80.3349C136.206 77.8338 137.656 77.9673 140.348 80.514C143.228 83.287 143.5 84.5 141.065 79.5349C138.319 75.3112 137.716 75.0467 131.212 77.5835Z" fill="#96C1C1"/>
<path d="M230.314 3.03961C224.071 5.74524 224.071 5.74524 233.853 5.74524C240.096 5.95336 243.426 5.12086 243.01 3.66399C241.969 0.333988 237.183 0.125863 230.314 3.03961Z" fill="#6B9696"/>
<path d="M230.321 26.512C233.335 32.0902 234.802 33.2543 235.213 30.3922C235.5 29.0259 233.897 26.6922 231.811 25.3032C224.5 21.5 226.004 21.2912 230.321 26.512Z" fill="#6B9696"/>
<path d="M243.5 28.5C242.655 26.7772 239.216 17.9515 236.398 16.9204C232.42 15.527 231.409 15.7716 230.58 18.5416C229.911 20.2023 229.151 20.6003 228.857 19.3866C228.564 18.1728 226.903 17.5039 225.082 17.9442C222.25 18.6292 222.348 19.0338 226.123 20.4762C228.691 21.354 232.11 23.0965 234.071 24.1211C240 28.5 239.024 28.5 235.053 21.0998C232.714 16.7407 232.916 16.6918 236.427 19.6969C238.534 21.3284 240.838 23.7691 241.536 24.885C243.532 27.8281 245.19 31.9455 243.5 28.5Z" fill="#6B9696"/>
<path d="M158.162 29.0909L154 33.2534L160.66 31.7965C164.406 31.1721 169.193 31.3803 171.482 32.8371C175.437 34.7103 175.853 34.5021 175.229 30.3396C174.188 23.8878 163.782 23.0553 158.162 29.0909Z" fill="#6B9696"/>
<path d="M159 48C159.229 46.7724 158.407 38.1935 161.5 37.5C169.067 35.5235 172.204 36.0359 164.672 34.4197C157.754 32.9181 154.612 36.1431 156.818 42.4822C157.664 44.7571 158.771 49.2276 159 48Z" fill="#6B9696"/>
<path d="M211.34 28.3222C208.913 30.286 205.631 30.5319 202.797 29.3451C198.006 27.0641 198.006 27.0641 201.764 30.7161C204.314 33.2046 206.786 33.6134 209.313 32.104C211.516 30.8566 213.92 30.5181 214.574 31.327C215.229 32.136 216.562 32.1285 217.371 31.4739C218.341 30.6884 218.072 29.0322 217.025 27.7379C215.846 26.2818 213.605 26.4893 211.34 28.3222Z" fill="#6B9696"/>
<path d="M152 39C152.325 43.9364 144.5 50.5918 153.246 41.5C154 39.5 155.199 34.7048 153.246 34.5C152.037 34.3954 151.739 37.0428 152 39Z" fill="#6B9696"/>
<path d="M199.437 11.6624C201.395 10.7202 205.411 9.87139 208.365 9.71093C213.684 9.3633 213.544 9.20961 207.97 8.66179C205.044 8.23419 202.451 6.93785 202.364 5.60804C202.571 4.29158 201.508 4.9799 200.533 6.99804C199.25 9.29685 197.279 10.5332 195.387 10.0053C192.921 9.15669 192.614 9.43736 194.158 11.128C195.14 12.2038 197.492 12.3107 199.437 11.6624Z" fill="#6B9696"/>
<path d="M165.172 23.5076C173.655 22.1175 178.051 20.8355 177.643 19.4369C177.352 18.4379 173.98 18.7708 170.242 20.0778C164.106 22.084 161.201 24.0154 165.172 23.5076Z" fill="#6B9696"/>
<path d="M181.118 27.6166C183.416 29.0601 185.29 29.2572 185.284 28.2166C185.263 24.6786 197.95 23.1474 203.378 26.0295C208.18 28.4989 209.011 28.286 212.523 23.8947C216.036 19.5035 216.452 19.501 216.68 22.8298C216.698 25.9516 217.321 25.7398 218.962 21.5676C220.194 18.6466 221.005 15.1037 220.789 13.6481C220.571 11.9843 222.654 12.3884 227.665 15.0647C231.633 17.3309 235.386 18.5578 236.007 17.9297C236.627 17.0936 237.253 17.5062 237.259 18.5468C237.266 19.5874 239.562 20.8227 242.477 21.0138C245.392 21.2049 247.676 20.359 247.67 19.3184C247.664 18.2779 247.034 17.2409 245.992 17.0388C236.622 16.2611 232.036 15.0392 230.774 12.7571C229.724 11.3064 228.89 10.895 228.896 11.9356C228.902 12.9762 227.651 12.5673 225.978 11.3283C222.214 8.22838 215.364 11.3904 209.581 18.9168C207.514 21.4265 204.614 23.7328 203.365 23.7402C201.908 23.7487 202.526 22.7044 204.392 21.4447C206.467 20.3919 209.588 14.0059 209.581 12.7571C209.572 11.3003 207.065 15.8096 205.2 17.2774C202.923 19.372 200.841 19.1761 195.83 16.4997C191.865 14.6498 189.365 14.2481 189.372 15.4969C189.379 16.7456 188.341 17.1679 187.297 16.5496C186.043 15.7245 185.212 15.9375 185.426 16.9768C186.281 20.7182 182.771 25.5256 179.851 24.5021C175.679 22.8615 176.313 24.5228 181.118 27.6166Z" fill="#6B9696"/>
<path d="M212.118 5.506C216.818 6.41412 220.68 3.98067 218.339 1.83262C217.436 1.02217 214.826 1.36575 212.262 2.5662C208.031 4.71634 208.031 4.71634 212.118 5.506Z" fill="#6B9696"/>
<path d="M123.999 79.1633C122.315 80.0508 120.647 81.6434 121.682 82.4296C122.097 82.744 123.171 82.1891 124.081 81.2052C127.993 76.9761 126.519 78.3984 123.999 79.1633Z" fill="#6B9696"/>
</svg>
